<svg xmlns="http://www.w3.org/2000/svg" viewBox="0 0 24 24"><path fill="currentColor" stroke="none" d="M16.3 6.32 17.63 4.4a.55.55 0 0 0-.9-.63l-1.37 1.96a7.35 7.35 0 0 0-6.72 0L7.27 3.77a.55.55 0 0 0-.9.63L7.7 6.32A6.36 6.36 0 0 0 4.6 11.3h14.8a6.36 6.36 0 0 0-3.1-4.98ZM9.2 9.45a.9.9 0 1 1 0-1.8.9.9 0 0 1 0 1.8Zm5.6 0a.9.9 0 1 1 0-1.8.9.9 0 0 1 0 1.8ZM4.6 12.5v5.55a1.2 1.2 0 0 0 1.2 1.2h.85v2.05a1.2 1.2 0 0 0 2.4 0v-2.05h5.9v2.05a1.2 1.2 0 0 0 2.4 0v-2.05h.85a1.2 1.2 0 0 0 1.2-1.2V12.5Z"/></svg>
